<svg height="512" viewBox="0 0 58 58" width="512" xmlns="http://www.w3.org/2000/svg"><g id="Page-1" fill="none" fill-rule="evenodd"><g id="010---Hockey-Sticks" fill-rule="nonzero" transform="translate(-1)"><path id="Shape" d="m30 2c-5.53 0-10 2.01-10 4.5v7c0 2.49 4.47 4.5 10 4.5s10-2.01 10-4.5v-7c0-2.49-4.47-4.5-10-4.5z" fill="#464f5d"/><path id="Shape" d="m56.47 42.1-2.47.8-4 1.31-4 1.3-4 1.31-4.37 1.42c-1.3455203.4455064-2.8190465-.1138492-3.53-1.34l-.59-.96-3.51 5.85 2.34 3.9c.8345279 1.4294244 2.3647993 2.3087595 4.02 2.31.3606762.0011832.7201002-.0424851 1.07-.13l4.57-1.34 4-1.17 4-1.17 4-1.17 3.47-1.02c.9146029-.2208621 1.551585-1.0493552 1.53-1.99v-6.03c-.014879-.6154653-.3123823-1.1897821-.8065342-1.5569779-.4941519-.3671959-1.1298804-.4863479-1.7234658-.3230221z" fill="#a59078"/><path id="Shape" d="m14.7 15.44-2.31-3.74-2.3-3.74-2.31-3.75-1.78-2.88c-.4798986-.82626375-1.36448808-1.33337754-2.32-1.33-.339143-.00086865-.67527435.06364141-.99.19-.72023535.28820434-1.28025225.87435663-1.53532795 1.60698006s-.18018152 1.53983114.20532795 2.21301994l1.67 2.79 2.26 3.77 2.26 3.77 2.26 3.77 16.68 27.83 3.51-5.69z" fill="#a59078"/><path id="Shape" d="m57.31.19c-.3147257-.12635859-.650857-.19086865-.99-.19-.9555119-.00337754-1.8401014.50373625-2.32 1.33l-1.78 2.88-2.31 3.75-2.3 3.74-2.31 3.74-15.3 24.81-3.51 5.69-.59.96c-.7109535 1.2261508-2.1844797 1.7855064-3.53 1.34l-4.37-1.42-4-1.31-4-1.3-4-1.31-2.47-.8c-.59358537-.1633258-1.22931392-.0441738-1.72346582.3230221-.49415189.3671958-.79165521.9415126-.80653418 1.5569779v6.03c-.02158505.9406448.61539709 1.7691379 1.53 1.99l3.47 1.02 4 1.17 4 1.17 4 1.17 4.57 1.34c.3498998.0875149.7093238.1311832 1.07.13 1.6552007-.0012405 3.1854721-.8805756 4.02-2.31l2.34-3.9 3.51-5.85 16.68-27.83 2.26-3.77 2.26-3.77 2.26-3.77 1.67-2.79c.3855095-.6731888.4604036-1.48039651.2053279-2.21301994-.2550756-.73262343-.8150925-1.31877572-1.5353279-1.60698006z" fill="#cbb292"/><path id="Shape" d="m6 42.9v10.12l-3.47-1.02c-.91460291-.2208621-1.55158505-1.0493552-1.53-1.99v-6.03c.01487897-.6154653.31238229-1.1897821.80653418-1.5569779.4941519-.3671959 1.12988045-.4863479 1.72346582-.3230221z" fill="#3b97d3"/><path id="Shape" d="m10 44.21v9.98l-4-1.17v-10.12z" fill="#2980ba"/><path id="Shape" d="m14 45.51v9.85l-4-1.17v-9.98z" fill="#3b97d3"/><path id="Shape" d="m18 46.82v9.71l-4-1.17v-9.85z" fill="#2980ba"/><path id="Shape" d="m52.45 14.34-2.26 3.77-4.89-2.67 2.31-3.74z" fill="#2980ba"/><path id="Shape" d="m56.97 6.8-2.26 3.77-4.8-2.61 2.31-3.75z" fill="#2980ba"/><path id="Shape" d="m49.91 7.96 4.8 2.61-2.26 3.77-4.84-2.64z" fill="#3b97d3"/><path id="Shape" d="m58.64 4.01-1.67 2.79-4.75-2.59 1.78-2.88c.4798986-.82626375 1.3644881-1.33337754 2.32-1.33.339143-.00086865.6752743.06364141.99.19.7202354.28820434 1.2802523.87435663 1.5353279 1.60698006.2550757.73262343.1801816 1.53983114-.2053279 2.21301994z" fill="#3b97d3"/><path id="Shape" d="m59 43.98v6.03c.021585.9406448-.6153971 1.7691379-1.53 1.99l-3.47 1.02v-10.12l2.47-.8c.5935854-.1633258 1.2293139-.0441738 1.7234658.3230221.4941519.3671958.7916552.9415126.8065342 1.5569779z" fill="#e64c3c"/><path id="Shape" d="m54 42.9v10.12l-4 1.17v-9.98z" fill="#c03a2b"/><path id="Shape" d="m50 44.21v9.98l-4 1.17v-9.85z" fill="#e64c3c"/><path id="Shape" d="m46 45.51v9.85l-4 1.17v-9.71z" fill="#c03a2b"/><path id="Shape" d="m14.7 15.44-4.89 2.67-2.26-3.77 4.84-2.64z" fill="#c03a2b"/><path id="Shape" d="m12.39 11.7-4.84 2.64-2.26-3.77 4.8-2.61z" fill="#e64c3c"/><path id="Shape" d="m10.09 7.96-4.8 2.61-2.26-3.77 4.75-2.59z" fill="#c03a2b"/><path id="Shape" d="m7.78 4.21-4.75 2.59-1.67-2.79c-.38550947-.6731888-.46040365-1.48039651-.20532795-2.21301994s.8150926-1.31877572 1.53532795-1.60698006c.31472565-.12635859.650857-.19086865.99-.19.95551192-.00337754 1.8401014.50373625 2.32 1.33z" fill="#e64c3c"/><path id="Shape" d="m40 6.5c0 1.74-2.2 3.25-5.41 4-1.5060941.340155-3.0459914.5078998-4.59.5-1.5440086.0078998-3.0839059-.159845-4.59-.5-3.21-.75-5.41-2.26-5.41-4 0-2.49 4.47-4.5 10-4.5s10 2.01 10 4.5z" fill="#7f8284"/><g fill="#f3d55b"><path id="Shape" d="m17 4c-.1547895-.00001024-.3074634-.03595365-.446-.105l-2-1c-.4942949-.24687128-.6948713-.84770515-.448-1.342s.8477051-.69487128 1.342-.448l2 1c.415621.20714245.6339515.67314892.5271118 1.12507155-.1068398.45192262-.5107327.77082825-.9751118.76992845z"/><path id="Shape" d="m16 8h-2c-.5522847 0-1-.44771525-1-1s.4477153-1 1-1h2c.5522847 0 1 .44771525 1 1s-.4477153 1-1 1z"/><path id="Shape" d="m43 4c-.4643791.0008998-.868272-.31800583-.9751118-.76992845-.1068397-.45192263.1114908-.9179291.5271118-1.12507155l2-1c.4942949-.24687128 1.0951287-.04629485 1.342.448s.0462949 1.09512872-.448 1.342l-2 1c-.1385366.06904635-.2912105.10498976-.446.105z"/><path id="Shape" d="m46 8h-2c-.5522847 0-1-.44771525-1-1s.4477153-1 1-1h2c.5522847 0 1 .44771525 1 1s-.4477153 1-1 1z"/></g></g></g></svg>